<?xml version="1.0" encoding="UTF-8"?>
<svg version="1.1" xmlns="http://www.w3.org/2000/svg" width="64" height="64">
<path d="M0 0 C2.5 1.79296875 2.5 1.79296875 5 4.1875 C5.86367188 5.0125 6.72734375 5.8375 7.6171875 6.6875 C8.40351562 7.450625 9.18984375 8.21375 10 9 C10.58007812 9.495 11.16015625 9.99 11.7578125 10.5 C14.06462452 12.50363101 14.95006863 13.71380798 15.48046875 16.75390625 C14.80135191 21.3420859 12.51165364 23.19806656 9.1875 26.25 C8.64029297 26.77851562 8.09308594 27.30703125 7.52929688 27.8515625 C5.12443426 30.14857067 2.77168618 32.15220921 0 34 C-6.56603774 33.43396226 -6.56603774 33.43396226 -8 32 C-8.04063832 30.33382885 -8.042721 28.66611905 -8 27 C-8.62044189 27.02094727 -9.24088379 27.04189453 -9.88012695 27.06347656 C-12.69075318 27.14661406 -15.50112096 27.19865061 -18.3125 27.25 C-19.28896484 27.28351562 -20.26542969 27.31703125 -21.27148438 27.3515625 C-22.20927734 27.36445312 -23.14707031 27.37734375 -24.11328125 27.390625 C-25.40939331 27.4220459 -25.40939331 27.4220459 -26.73168945 27.45410156 C-29 27 -29 27 -30.78051758 25.15527344 C-32.38503994 22.31949298 -32.39932421 20.24322797 -32.375 17 C-32.38273437 15.96875 -32.39046875 14.9375 -32.3984375 13.875 C-31.94229645 10.58362931 -31.28859101 9.37112213 -29 7 C-26.73168945 6.54589844 -26.73168945 6.54589844 -24.11328125 6.609375 C-23.17548828 6.62226563 -22.23769531 6.63515625 -21.27148438 6.6484375 C-20.29501953 6.68195312 -19.31855469 6.71546875 -18.3125 6.75 C-17.32443359 6.76804687 -16.33636719 6.78609375 -15.31835938 6.8046875 C-12.87793158 6.85184553 -10.43945231 6.91763958 -8 7 C-8.061875 6.21625 -8.12375 5.4325 -8.1875 4.625 C-8.0946875 3.325625 -8.0946875 3.325625 -8 2 C-4.72546289 -0.18302474 -3.79840507 -0.55958646 0 0 Z " fill="#000000" transform="translate(40,15)"/>
</svg>
